<svg xmlns="http://www.w3.org/2000/svg" viewBox="0 0 1491 1415"><defs><clipPath id="b"><use href="#reuse-0"/></clipPath><filter id="a" width="100%" height="100%" x="0%" y="0%" filterUnits="objectBoundingBox"><feColorMatrix in="SourceGraphic" values="0 0 0 0 1 0 0 0 0 1 0 0 0 0 1 0 0 0 1 0"/></filter><path id="reuse-0" d="M0 0h1491v1415H0z"/><mask id="d"><g filter="url(#a)"><use fill-opacity=".6" href="#reuse-0"/></g></mask><g id="c" fill="#371768" clip-path="url(#b)"><path d="m281 913-9-3 50-20Zm-6-3 6 3 33-18Zm0 0"/><path d="m372 940-52-50 46-6Zm-49-50 47 46-4-52ZM179 573l-21-54 42 45Zm-20-50 21 49 19-5Zm18 219-33-91 35 80Zm-25-72 24 66v-5Zm0 0"/><path d="m205 764-29-25 33-22Zm-28-25 28 24 3-43Zm-25 103 24-103 3 65Zm24-99-23 96 24-35Zm-5-149-19-75 30 53Zm-18-71 18 68 8-19Zm26 210-36-84 51 32Zm-33-81 33 76 15-46Zm0 0"/><path d="m176 740 1-9 31-12Zm3-9v6l23-15Zm0 0"/><path d="M179 804h-2v-65l11 30Zm-2-61v56l10-30Zm17-61-50-31 29-60Zm-48-31 47 30-22-85Zm85-53-32-31 30-13Zm-31-31 31 27-3-39Zm0 0"/><path d="m223 810-36-43 18-4Zm-35-41 33 38-16-43Zm40-214-10-24 8-8Zm-10-23 10 17-4-24Zm-45 62 6-22 23-6Zm7-21-6 18 23-24Zm48-18 30-20 4 8Zm30-18-24 15 27-9Zm0 0"/><path d="m199 567-43-48 64 12Zm-40-45 40 44 18-34Zm26 391-20-33 40-8Zm-18-30 15 30 18-38Zm0 0"/><path d="m167 881-12-32 50 25Zm-11-30 11 29 35-6Zm0 0"/><path d="m205 875-50-24 22-49Zm-49-24 46 21-25-67Zm117 61-20-54 70 32Zm-17-51 17 49 46-20Zm-69-92-11-30 30 25Zm-10-29 11 27 15-4Zm0-9 16-52 15 40Zm16-49-14 47 27-10Zm27-148-64-14 41-15Zm-61-15 58 12-21-26Zm0 0"/><path d="m224 810-47-6 10-37Zm-45-6 42 4-33-39Zm0 0"/><path d="m203 875-26-71 46 6Zm-24-71 24 68 20-61Zm45-401-21-36 49 30Zm-19-33 21 30h23Zm13 164-22-31 30 22Zm-19-27 19 24 6-6Zm33 89-61-2 26-30Zm-59-3 56 1-30-27Zm170 264-55-74 44-35Zm-55-74 52 69-11-103Zm0 0"/><path d="m194 682-23-88 61 2Zm-21-88 21 85 35-83Zm24-27 21-36 11 24Zm21-35-18 34 28-12Zm78 23-31-4-4-10Zm-31-6 23 5-26-10Zm0 0"/><path d="m194 681 34-87 13-4Zm37-85-31 73 40-76Zm24-65 21-72 49 57Zm23-68-22 66 67-15Zm0 0"/><path d="m231 596-3-41 15 36Zm-2-38 2 36 9-3Zm-29 399-15-45 61 25Zm-15-44 15 43 43-19Zm0 0"/><path d="m246 939-61-26 18-41Zm-61-26 58 23-40-61Zm91-452-52-61 32 11Zm-48-58 45 55-15-47Zm0 0"/><path d="m273 913-71-39 53-16Zm-68-39 67 36-17-49Zm36-281-13-38 24 30Zm-10-35 10 32 9-6Zm139 381-4-55 10-6Zm-3-55 5 47 3-50Zm0 0"/><path d="m228 557-4-34 32 6Zm-2-32 3 29 26-25Zm29 479h-8l-3-67Zm-6 0h4l-7-55Zm0 0"/><path d="m228 555 28-27 3 9Zm27-24-23 21 26-15Zm-53 343 21-66 33 52Zm21-63-18 61 48-12Zm0 0"/><path d="m244 937-42-65 73 38Zm-39-62 39 61 28-26Zm98-302-39-24 32 5Zm-35-24 34 20-8-15Zm28-228-15-24 30 3Zm-15-22 15 21 13-20Zm-23 113-32-9v-1l24-3Zm-30-9 27 6-5-9Zm0 0"/><path d="m252 585-24-30 37-6Zm-23-30 23 29 12-33Zm0 0"/><path d="m228 555 33-12 4 8Zm33-12-27 11 30-5Zm-5-12-32-6 52-64Zm-30-8 30 6 20-66Zm0 0"/><path d="m226 525-30-20 80-46v2Zm-29-20 27 18 51-60Zm52-103 6-78 38 25Zm7-76-6 71 41-48Zm40 229-35-12-3-8Zm-34-12 25 9-28-15Zm0 0"/><path d="m196 505 30-103 52 59Zm30-102-29 100 79-42Zm29 458-34-51 69-29Zm-31-51 31 48 33-74Zm79-451-12-10 5-28Zm-10-12 7 9-4-30Zm-43 238 15-36 38 23Zm15-34-13 33 48-14Zm-21 386 29-27 9 3Zm29-24-24 21 30-18Zm0 0"/><path d="m288 784-85-20 5-45 82 64m-84-22 82 19-79-61Zm0 0"/><path d="m223 810-20-47 88 20Zm-18-46 18 46 65-27Zm91-207-40-20 69-23Zm-38-20 36 18 28-38Zm0 0"/><path d="m258 537-3-8 68-15v2Zm-2-8 3 6 55-18Zm66 363-67-31v-1l88-6Zm-64-31 62 29 20-35Zm-8-461 41-53 11 11Zm41-51-38 45 49-36Zm0 0"/><path d="m258 412-9-13 53-41Zm-8-13 6 10 41-47Zm99 553-29-60 2-2 50 49Zm-26-60 26 60 21-15Zm117-85-9-38h33Zm-8-37 6 32 25-33Zm0 0"/><path d="m278 463-22-52 46-53Zm-20-52 18 48 24-100Zm35-62-38-25 42-3Zm-35-23 33 21 5-24Zm-5 535v-1l37-79 53 74Zm37-77-34 76 84-6Zm6-463 15-22 21 22Zm15-19-14 19h31Zm-27 711-31-7v-2l50-1Zm-26-9 26 6 15-9Zm0 0"/><path d="m303 1004-60-67 38-24 22 90Zm-57-67 56 62-21-84Zm0 0"/><path d="m255 1004-12-68 60 67Zm-9-65 9 65 45-1Zm173-94-88-99 101 23Zm-85-96 85 93 12-72Zm9 308 48-14 11 13Zm48-12-42 11 51-2Zm6-743h-3l25-61 9 5Zm25-58-22 47 28-45ZM303 573l-9-18 31-39Zm-7-18 6 15 20-51Zm6-196-6-38h36Zm-5-38 5 35 27-35Zm31 424-122-25-15-39Zm-120-26 115 23-129-60Zm0 0"/><path d="m329 746-136-65 48-91Zm-135-65 132 61-83-148Zm0 0"/><path d="m288 784-80-65 121 24Zm-76-64 79 61 37-36Zm166 286-19-20 26-11Zm-15-20 15 17 6-26Zm0 0"/><path d="M290 784v-1l38-40 4 5Zm38-39-31 30 34-27Zm39 139-26-30 35 26Zm-21-26 21 25 8-3Zm85-88-41-34 73 33Zm-37-33 38 30h28Zm38-390-36-45 61 24Zm-33-45 33 44 23-20Zm-56 755-40-53 61-18Zm-40-53 40 52 16-69Zm182 141-85-91 105-11Zm-83-91 82 90 20-99Zm-77-538-49-57 88-1Zm-46-55 46 53 38-56Zm0 0"/><path d="m343 1057-61-45 21-11Zm-59-45 56 41-37-49Zm0 0"/><path d="m302 1004 45-53 16 35Zm45-52-42 49 54-15Zm0 0"/><path d="m349 954-68-41 41-24Zm-67-41 64 38-24-61Zm0 0"/><path d="m303 1004-22-91 68 39Zm-22-91 21 86 44-48Zm80 232-3-12 42-79Zm-3-12 3 9 33-76Zm58-126-31-30 25-25Zm-31-30 29 27-6-48Zm-24-363-121-23 12-7Zm-118-23 104 20-95-26Zm0 0"/><path d="M328 746v-1l-88-155 121 24Zm-85-155 85 152 33-129Zm118 23-112-30 53-14Zm-106-30 103 29-56-41Zm109 32-62-46 23-56Zm-61-46 58 43-36-96Zm-27-109 26-105 62 102Zm26-102-24 100 85-3Zm0 0"/><path d="m300 359 31-38 56 3Zm31-38-28 35 81-30Zm33 137 47-94 2 80Zm47-91-45 89 45-13Zm-91 525 21-38 26 30Zm21-37-19 35 44-6Zm323-44h-1l-15-66 27 22Zm-15-63 15 60 9-41Zm-308 309 35-54 15 42Zm35-51-32 50 46-13Zm-45-685-22-21 66-51Zm-20-21 20 20 42-68Zm0 0"/><path d="m411 479-47-23 50-15Zm-45-23 45 22v-35Zm19 521-36-25 24-15Zm-36-25 35 22-14-35Zm0 0"/><path d="M411 478v-35h6Zm2-34v26l4-26Zm-69 613h-1l16-73 20 20Zm15-70-15 66 31-49Zm98-659-61-26 33-56Zm-61-28 59 24-27-75Zm-35 686-15-35 39 24Zm-12-32 12 30 23-9Zm-21-209 33-131 30 122Zm33-129-32 127 61-9Zm0 0"/><path d="m332 749-4-6 62-9v2Zm-3-4 3 3 43-11Zm88-114-56-17 71-68Zm-54-17 53 15 15-80Zm37 442 16-50 91 39Zm16-49-14 46 100-8Zm-29-681-56-5 66-21Zm-53-5 51 3 11-22Zm0 0"/><path d="m329 321 46-72 22 53Zm46-69-43 68 64-20Zm160 47 31-84h9Zm31-84-26 72 33-72ZM464 770l-76-34 28-108Zm-73-36 72 33-46-136Zm19 222-40-17 5-59Zm-38-17 36 15-32-73Zm0 0"/><path d="m384 977-15-40 41 15Zm-12-38 13 36 23-21Zm47-495h-9v-80Zm-6-1h4l-4-61Zm18 327-97-21v-3l59-13Zm-97-24 95 21-39-33Zm-11-229 41-61 49 22Zm41-61-39 58 85-36Zm0 0"/><path d="m417 1007-41-3 8-30Zm-39-3h36l-30-27Zm0 0"/><path d="m391 1047-15-43 40 2Zm-15-41 15 37 23-36-36-1Zm-12-548-64-100 113 6Zm-61-99 61 96 46-91Zm0 0"/><path d="m413 365-111-6v-1l85-34Zm-108-7 106 6-24-38Zm373 598-97-102h1l116-15Zm-94-102 94 100 18-115Zm-182 202-11-11 23-39Zm-9-11 7 9 13-45Zm26-200 12-76 9 35Zm12-73-11 68 18-36Zm0 0"/><path d="m414 1007-6-55 46 7Zm-4-53 6 50 36-45Zm121-256 47-91 6 30Zm45-88-42 82 48-57ZM411 367l-26-43 49 22Zm-23-41 23 38 21-18Zm3 410h-1l-31-122 58 15Zm-30-122 30 119 25-102Zm0 0"/><path d="m432 347-45-21 9-26Zm-45-23 44 20-35-42Zm-11 557-36-29 80-10Zm-33-26 33 23 41-33Zm0 0"/><path d="m341 855-10-109 89 99Zm-9-106 9 105 76-11Zm123-421-27-82 76 9Zm-26-82 26 77 46-68Zm-33 57-23-54 49-6Zm-21-53 21 49 24-56Zm0 0"/><path d="m375 250-6-59 54 52Zm-5-56 5 55 45-6Zm179 522-18-18 35-11Zm-15-18 15 16 15-27Zm-52 528-69-14 72-68Zm-68-16 67 16 3-79Zm168-356 81-44 35 29Zm81-43-76 41 109-15ZM361 616l-38-102 109 33Zm-36-100 38 97 68-64Zm0 0"/><path d="m432 549-110-33 89-38Zm-106-33 105 30-21-67Zm402 828-27-140 29-7v147Zm-26-138 26 132v-140ZM419 443h-2l-6-79 23-20Zm-6-78 4 73 15-91Zm0 848-54-69h126Zm-49-69 52 68 68-67Zm99-374v-1l69-74v38Zm68-72-65 69 65-36Zm-62 132-31-25 34 20Zm-20-19 20 16Zm0 0"/><path d="m482 890-65-45 52-17Zm-62-45 61 42-12-57Zm102-43-61-33 71-36Zm-58-33 56 32 11-67Zm67-71 51-63-16 52Zm50-61-47 59 30-10Zm-96 508H361l39-91Zm-122-1h121l-82-88Zm156-785-64-33 83-29Zm-61-33 61 32 15-58Zm50 652-58-19 82-46Zm-53-19 52 18 24-61Zm0 0"/><path d="m417 845 21-41 31 24Zm21-40-18 38 47-15Zm32 22-30-23 26-37Zm-30-23 30 20-7-54Zm0 0"/><path d="m470 827-7-58 60 33Zm-6-57 8 55 47-23Zm-9 189-47-5 74-65Zm-45-5 44 5 27-69Zm0 0"/><path d="m410 956-35-76 109 9Zm-34-76 32 72 73-63Zm0 0"/><path d="m485 890-110-10 44-37Zm-107-10 103 9-61-46Zm160-578-3-3 38-84Zm-3-3h2l23-50Zm107 788 25-81 6 56Zm25-78-24 75 30-22ZM431 549l-21-71 118-15Zm-20-70 21 68 93-83Zm0 0"/><path d="m410 479 7-36 109 20Zm7-35-6 34 112-15Zm114 290 18-20 3 15Zm17-17-16 16 19-4Zm-93-391 46-71 6 7Zm46-70-38 59 42-53Zm-49 704 30-71 52 26Zm30-70-27 67 76-42Zm22 155-91-39 95-31Zm-87-39 87 37 3-65Zm0 0"/><path d="m414 1007 40-48 54 18Zm40-47-37 46 88-29Zm-37-514 15-100 88 12Zm15-99-15 96 100-84Zm0 0"/><path d="m519 359-88-12 24-23Zm-85-13 82 12-61-30Zm97 515-64-33 3-3Zm-61-33 41 23-39-24Zm103-613 43-57-21 54Zm41-54-39 54 20-1Zm0 0"/><path d="m482 889 49-29-3 14Zm47-26-41 23 38-14Zm-74-535 50-66 30 37Zm50-64-48 60 77-25Zm-42 506-47-141 116 67Zm-46-139 46 136 68-71Zm0 0"/><path d="m531 863-61-38 52-24Zm-59-38 57 35-9-58Zm0 0"/><path d="m482 890-15-63 64 34Zm-13-60 15 57 45-26Zm230-651-62-46 58-54Zm-60-46 60 43-6-94ZM538 469l-12-5 11-30Zm-10-6 9 4v-30Zm56 179-2-7-1-25h1l3 30Zm-83-384 36-70 30 27Zm36-67-35 64 62-40Zm-15 611h-2l11-71 21-5Zm10-68-10 64 29-69Zm0 0"/><path d="m566 215-31-26h2l39 26Zm-23-21 23 21h6Zm-9 722-53-27 45-15Zm-50-27 47 24-6-39Zm44-425-112-21 121-11Zm-106-20 104 19 9-29Zm0 0"/><path d="m416 444 103-86 18 76Zm103-85-100 84 116-9Zm-91-113-8-3 117-54Zm-5-3 5 3 91-46Zm0 0"/><path d="m501 256-75-9 112-59Zm-70-10 70 9 34-64Zm107 56h-1l36-88 23-3Zm37-87-34 81 52-84Zm0 0"/><path d="m422 243-53-50 168-4Zm-50-49 50 49 112-54Zm147 165 15-60 4 1Zm16-60-9 35 11-32ZM416 631l15-84 110-15Zm15-82-14 80 121-95Zm0 0"/><path d="m540 534-15-71 12 4Zm-12-70 10 61-1-56Zm0 0"/><path d="m429 549 97-86 15 71Zm97-85-92 85 106-15Zm-21-200-4-8 63-41Zm-3-8 3 6 52-41Zm29 478v-39l18 21Zm0-36 1 33 16-15Zm0 0"/><path d="m535 300-30-38 61-48Zm-30-38 30 35 29-80Zm26 654-5-44 43 20Zm-3-42 3 39 33-21Zm0 0"/><path d="m567 892-41-18 3-14Zm-39-18 35 15-32-26Zm38-188 16-52 3 6Zm16-49-12 33 14-30Zm0 0"/><path d="m531 861 53-10v3Zm51-9-27 5Zm0-217-6-25h5Zm-3-25 2 15Zm-15 77 20-45-3 37Zm20-42-18 41 15-7Zm-2 450-78-50 106 41Zm-72-47 72 46 23-8Zm0 0"/><path d="m595 714-31-27 17-8Zm-29-28 27 24-12-31Zm-35 175-11-60 64 51Zm-9-57 9 57 51-10Zm85 361-125-20 100-51Zm-122-21 122 19-25-68Zm46-446-117-69 165-19Zm-112-67 112 65 45-86Zm0 0"/><path d="m414 631 126-99 39 76Zm126-97-121 95 157-21Zm67 553-103-42 3-70v2l101 109m-103-43 102 40-97-106Zm0 0"/><path d="m484 1145 20-102 80 51Zm20-98-19 97 96-50Zm0 0"/><path d="m607 1165-26-71 27-8Zm-25-71 25 66v-73Zm13-381-16-34 5-39Zm-14-34 14 31-11-64Zm0 0"/><path d="m481 1226 3-82 124 19Zm4-81-3 79 122-61Zm61-429 18-30 32 28Zm20-29-15 29 44-3Zm9-472-40-26 82-33Zm-37-26 35 25 41-55Zm29 704-38-32 55-9Zm-36-30 36 27 15-36Zm136 144 11-53 11-3Zm13-51-10 43 17-47Zm-28-481-115-41 126-14Zm-112-41 111 39 10-51Zm293 107-28-12 23 3Zm-22-10 19 7-3-4Zm0 0"/><path d="m537 435-20-76 79 16Zm-18-76 18 73 56-57Zm0 0"/><path d="m596 375-79-16 20-60Zm-76-16 73 14-56-71Zm31 372-3-15 47-3Zm-2-15 2 12 41-15Zm35 136-64-50 90-68Zm-62-50 60 49 26-114Zm0 0"/><path d="m519 804 30-76 61 8Zm32-75-29 72 85-65Zm0 0"/><path d="m610 737-59-8 45-16Zm-56-8 54 7-13-22Zm0 0"/><path d="m663 811-56-75 41 9Zm-53-75 51 72-15-62Zm-26-93-3-33 65-70Zm-2-33 3 30 58-96Zm-47-176 60-61 68 49Zm61-61-58 61 122-14Zm0 0"/><path d="m648 541-111-7 115-61Zm-107-7 105 6 5-64ZM713 528l-23-5-38-50Zm-21-6 18 4-53-45Zm-85 643v-79l26 1Zm0-78v73l24-71Zm82-135 48-40v30Zm47-39-46 38 46-11Zm0 0"/><path d="m687 952 11-115 41 76Zm11-112-9 111 47-39ZM537 189l99-60-20 29Zm97-60-91 57 73-30Zm-94 405-3-67 117 8Zm-2-67 2 65 109-57Zm110 279-40-10-13-22v-1Zm-38-10 35 9-47-31Zm-34-126-38-76 110 6Zm-36-76 38 74 67-68Zm0 0"/><path d="M581 610h-5l70-70Zm-2 0h2l41-46Zm69 136-53-33-11-73Zm-52-33 50 30-61-100Zm56-238-115-8v-35Zm-115-8 111 6-111-39Zm124 636-30-16 11-1Zm-27-16 23 13-15-13Zm27-665-68-49 118-30Zm-65-47 65 45 47-74Zm64-75-68-88 63-6Zm-64-88 61 85v-89Zm0 0"/><path d="m593 375 65-76 53 45Zm65-76-60 74 110-29Zm-1-91-41-50 21-19Zm-40-50 38 47-18-63Zm0 0"/><path d="m595 212 21-56 41 52Zm21-53-20 52 59-5Zm-21 216-58-75 121-1Zm-57-73 57 71 62-73Zm0 0"/><path d="m537 302 58-91 65 89Zm58-88-57 86 119-1Zm72 793L567 892l113 62Zm-97-114 97 111 11-48Zm12-41 26-118 56 76Zm28-115-26 114 79-41Zm0 0"/><path d="M582 855v-4l81-41Zm0-3 37-18Zm85 155-160-30 24-64Zm-159-30 158 29-134-91Zm0 0"/><path d="m667 1007-136-94 36-24Zm-133-94 130 90-97-111Zm161 178-15-22 18-24Zm-15-22 15 18 1-37Zm0 0"/><path d="m633 1089-26-2 60-81Zm-25-3 25 1 33-75Zm0 0"/><path d="m631 1089 36-83-25 80Zm32-71-30 69 9-1Zm0 0"/><path d="M607 1087 505 977l164 30Zm-99-109 99 106 60-77Zm170-22-112-64 16-40Zm-111-64 108 60-91-97Zm113 179-8-9 24-15Zm-5-9 5 7 15-19Zm0 0"/><path d="m660 1104 18-35 17 20Zm20-33-17 30 30-12Zm-7-8-6-59 31 44Zm-4-54 4 53 23-15Zm0 0"/><path d="m661 1104-21-18 40-17Zm-18-18 18 15 15-30Zm0 0"/><path d="M642 1087v-1l30-24 8 9Zm30-24-26 21 32-15Zm6-107 18-117h2l-9 113Zm17-104-15 102 9-3Zm-49-311 5-68 41 49Zm6-65-4 64 42-18Zm46-299-61-36v-9Zm-58-36 46 27-46-33Zm73 387-61-55 9-56Zm-61-55 58 50-49-101Zm94 668-53-52 53-20Zm-50-52 47 52v-69Zm0 0"/><path d="m657 208-20-69 61 38Zm-17-66 17 64 41-30Zm96 771-38-76 24-13 17 89Zm-38-76 38 71-16-83Zm12-491-53-47 89-25Zm-50-46 50 44 35-67Zm83 505-36-10h35Zm-32-10 31 9v-9Zm-12 356-6-64 53 54Zm-4-60 6 60 44-12Zm0 0"/><path d="M701 1206v-58l30 49Zm0-53v51l27-7Zm23-332-19-29 38 10Zm-16-25 16 23 16-15Zm-62-255v-1l46-18 19 4Zm46-18-40 15 58-10Zm9 628-43-17 37-47Zm-41-18 39 17-4-61Zm0 0"/><path d="m663 811 10-45 35 29Zm12-42-11 41 41-15Zm0 0"/><path d="m698 839-37-29 46-15Zm-34-28 32 26 9-41Zm-6-511-3-94 91 70Zm0-91v90l85-23Zm111 818-17-29 19-41Zm-15-29 13 26 2-62Zm0 0"/><path d="m720 827-15-32h2l17 24Zm-10-26 10 23 2-5Zm-12 247-31-41 50 33Zm-28-39 28 38 18-7Zm101-421-25-53 26 3Zm-23-51 23 48v-45Zm-2 467-15-30v-2l23 27Zm-10-27 12 24 4-3Zm28-246-1-27h3Zm0-26v17Zm0 0"/><path d="m696 839 11-46 15 32Zm11-43-9 41 21-12Zm-40 211 22-56 39 53Zm22-55-22 54h58Zm0 0"/><path d="m717 1040-51-34h62Zm-47-33 46 30 11-30Zm0 0"/><path d="m698 1048 19-9 14 9Zm19-8-16 7h26Zm0 0"/><path d="m695 1091 1-44h34Zm3-41-3 39 33-39Zm47-774-90-68 44-31Zm-88-68 86 66-45-95Zm0 0"/><path d="m728 1048-12-8 11-34h1Zm-11-9 11 8v-38Zm29 102v-72l25 15Zm0-70v67l23-52Zm0 0"/><path d="m728 1007-41-55 46 20Zm-38-55 38 52 3-30Zm50-770-41-5 53-10Zm-38-5 38 3 9-12Zm18 648 2-6 20-15Zm4-6v3l9-9Zm0 0"/><path d="m733 974-46-23 50-11Zm-43-22 41 20 5-30Zm81-364-61-62 38 9Zm-57-60 53 57-21-48Zm-16-351-5-98 59 89Zm-3-95 4 95 50-10Zm48 989 26-47 6 45Zm24-44-21 42 28-1Zm43-862-33-50 66-15Zm-30-48 30 45 30-59Zm-37 678h-36l35-12Zm-33 0h30v-11Zm0 0"/><path d="m707 795-34-28 70 16Zm-31-26 31 24 32-9Zm145-191-16-50 26 10Zm-14-49 15 46 8-35Zm-79 669-29-47 47-12Zm-27-45 27 42 15-54Zm27-147 3-35 15 32Zm5-31-5 31 18-3Zm44-327-8-61 9-3Zm-6-60 6 50v-53Zm-78 503 35-46 18 26Zm35-43-30 39 45-18Zm0 0"/><path d="M728 1047v-41l20-5Zm0-41v37l18-40Zm39-786-27-38 11-15Zm-25-38 24 33-15-45Zm0 602-70-15 88-33Zm-66-17 64 16 18-46Zm95 192-35-19 30-42Zm-34-19 32 17-3-56Zm0 0"/><path d="m675 767 88-65-3 35Zm86-62-83 61 80-30Zm0 0"/><path d="m675 769-29-23 117-42Zm-26-23 26 21 85-60Zm0 0"/><path d="m648 746-66-106 182 64Zm-61-104 61 103 113-41Zm158 429-17-24 41-23Zm-15-24 15 22 21-42Zm98-465-7-6 9-36h1Zm-6-7 5 4 3-33Zm0 0"/><path d="m728 1050 18-49 23 24Zm20-46-20 41 38-20Zm56-235-38-65 130-75Zm-38-65 39 62 90-134Zm-8 35 5-35 1 29Zm5-28-3 25 4-3Zm-27 232v-30l31-15Zm1-30v26l27-38Zm34-325-126-48 68-14Zm-122-48 118 45-56-57Zm0 0"/><path d="m736 913-16-88 46 76Zm-16-85 17 84 27-13Zm0 0"/><path d="m766 901-46-76 22-21Zm-46-76 44 71-22-91Zm25-549-47-99 69 43Zm-46-97 46 95 21-56Zm0 0"/><path d="m767 220-69-43 42 3 27 38m-66-41 63 38-24-35Zm66 848-21-21 6-5Zm-19-21 16 18-12-21Zm50 41-31-20 75-57Zm-29-20 29 18 42-72Zm76-176-105-45 65-37Zm-102-45 99 44-38-79Zm8-634-58-91 81 57Zm-55-88 55 85 21-31Zm73 506 2-50 7 46Zm3-42v41l5-3Zm-41 428 5-34 36 19Zm5-32-3 30 36-15Zm16 57-21-25 41-15Zm-19-25 19 25 17-39Zm-5 224 15-57 40 10Zm18-57-15 54 50-45Zm0 0"/><path d="M730 1344v-147l54-49Zm0-147v142l53-186Zm31-492 16-57-11 56Zm11-36-9 35h3Zm-3 417-24-15 26 10Zm-17-12 15 10 2-3Zm-12-288 20-50 15 25Zm20-47-18 44 33-22Zm0 0"/><path d="m774 761-16-24 6-6 11 30Zm-14-24 12 18-8-22Zm0 0"/><path d="M740 796v-12l35-24Zm2-12v9l30-29Zm0 0"/><path d="M742 807v-12l33-35Zm0-12v7l27-35Zm21-90-179-65 194 6Zm-174-65 174 61 14-53Zm0 0"/><path d="m778 649-194-9 62-102Zm-193-9 190 8-129-107Zm0 0"/><path d="M778 649 646 540l125 48ZM649 543l128 103-8-58Zm159-370-36-37 38 28Zm-30-32 30 30v-7Zm-6 399-26-3 41-143Zm-24-5 23 3 15-136Zm0 0"/><path d="m810 164-38-28 6-22Zm-36-28 34 25-30-44Zm4 449-7-47h15Zm-6-45 6 41 6-41Zm206 324-22-12 34-15Zm-21-12 21 11 8-23ZM713 528l-52-106 128-29v1Zm-50-106 48 104 76-130Zm0 0"/><path d="m748 537-37-9 76-134Zm-35-11 33 9 40-136Zm0 0"/><path d="m660 422 50-78 79 50Zm50-76-47 76 124-28Zm94 423-30-8-10-28 41 34m-28-9 27 6-37-30Zm0 0"/><path d="m771 540 16-146 20 135Zm18-143-17 140 33-11Zm3-118-49-3 23-59Zm-46-3 44 1-23-57Zm58 491-40-34v-31l41 65m-39-34 38 31-37-59Zm5 226-5-61 52 20Zm-5-58 5 56 45-39Zm0 0"/><path d="M743 805h-1l33-45 30 7Zm31-44-31 41 59-35Zm12-220-15-1v-2l34-10Zm-12-3h12l15-7Zm-7-318-18-53 61 4Zm-15-52 15 50 40-45Zm0 0"/><path d="m808 173-59-5 25-33Zm-56-6 53 4-31-35Zm14 734-26-97 105 45Zm-23-96 23 94 76-50Zm46-409-81-52 105-42Zm-78-50 76 47 24-91Zm110 230-37-36 23-12Zm-35-36 35 33-16-44Zm0 0"/><path d="m708 346 37-72 68 28Zm37-70-32 68 98-42Zm0 0"/><path d="m811 303-66-27 45 1 23 25m-64-26 61 24-20-21Zm69 643-54-18 81-53Zm-51-21 49 18 26-67Zm10-313 9-45 36 36Zm9-45-8 45 43-10Zm433-264-34-30 54-37Zm-33-30 33 27 19-61Zm0 0"/><path d="m778 585 43-10 9 6Zm43-9-35 8 41-5Zm6-42-22-5h16Zm-16-5 16 3-5-3Zm0 0"/><path d="M777 649v-65l53-3Zm0-64v61l50-65Zm86-141-76-50 65-35Zm-74-50 73 49-10-82Zm22-91-22-24 48-15Zm-19-24 19 23 23-35Zm0 0"/><path d="m789 279-23-61 71 49Zm-20-59 21 57 44-12Zm58 362 3-44 50-9Zm4-42-3 39 49-48Zm0 0"/><path d="m810 303 26-38 27 16Zm26-36-23 33 47-19Zm26 749-20-47 24 35Zm-17-42 17 39 4-9Zm-78 53 4-70 72 11Zm4-68-2 65 71-55Zm0 0"/><path d="m862 282-28-15 20-49Zm-26-15 24 12-6-58Zm-5 273-4-8 51-3Zm-3-6 3 4 38-7Zm15 435-74-10 49-43Zm-71-12 68 11-22-49Zm0 0"/><path d="m854 220-46-56 84-46Zm-43-56 43 53 36-97Zm0 0"/><path d="m836 267-70-49h89Zm-67-47 67 45 18-45Zm0 0"/><path d="m766 220 41-49 48 49Zm41-46-38 44h83Zm-20 222 24-96 41 61Zm24-91-22 86 62-33Zm0 0"/><path d="M811 303v-1l51-23 16 23Zm51-22-46 21 61-2Zm-8-61-47-47 3-11 45 56Zm-46-47 40 38-38-46Zm0 0"/><path d="m877 302-15-21 18 19Zm0-3"/><path d="m852 361-41-61h67Zm-39-59 39 57 25-57Zm-8 229v-2l-18-136 76 50Zm-16-137 18 132 55-82Zm0 0"/><path d="M822 529h-17l57-86Zm-15 0h15l37-79Zm9 390 27-71 35 48Zm27-70-24 67 59-20Zm0 0"/><path d="m842 969-26-51 62-22Zm-24-51 24 50 35-70Zm9-384-6-6 57 1Zm-3-5 4 3 38-1Zm0 0"/><path d="m880 531-59-2 41-88Zm-58-3h55l-15-82Zm114-351-46-59 61 3Zm-44-57 44 56 12-53ZM775 649l53-70 67 46Zm53-68-50 67 114-23Zm24-220-1-2 26-59 3-1Zm72 625-38-27 64-16Zm-35-26 35 24 22-38Zm0 0"/><path d="m866 1004-26-36 49-9Zm-24-35 24 34 21-43Zm0 0"/><path d="m840 969 38-74 11 65Zm37-71-34 70 44-9Zm0 0"/><path d="m878 898-35-49 46-39Zm-33-49 32 46 10-82Zm0 0"/><path d="m843 849-39-83 86 45Zm-39-80 38 79 45-37Zm92 220-10-30 39 27Zm-7-29 9 29 24-5ZM777 649v-1l116-25 5 8Zm118-24-96 20 99-16Zm0 0"/><path d="m766 705 11-57 121-19Zm12-56-11 53 126-71Zm178 253-81-4 82-46Zm-76-6 76 5v-47Zm179-33h-67l-5-26Zm-66-2h61l-65-21Zm-97-230 23-21h21Zm25-21-22 18 37-17Zm-56 394 22-45 11 30Zm22-42-19 41 30-14Zm84-316-20-92 124 15Zm-18-91 19 90 100-76Zm124-194-85-37 117-40Zm-82-37 83 35 29-72ZM878 531l-16-88 42 65Zm-15-85 15 83 24-19Zm0 0"/><path d="M880 531h-2l24-21h2l-2 4Zm22-20-15 11 14-8Zm-6 120-1-6 15-18Zm-1-6 1 4 10-18Zm0 0"/><path d="m895 625-67-44 82 27Zm-64-43 64 43 15-15Zm0 0"/><path d="m910 610-83-31 51-51Zm-82-31 81 28-31-76Zm0 0"/><path d="M898 631h-3l12-24 12 3Zm12-23-11 20 20-18Zm357-271-54-25 69-35Zm-51-26 49 24 15-58ZM862 443l69-50v4Zm68-49-43 31 43-28Zm0 0"/><path d="m904 511-42-68 69-47Zm-41-68 39 64 28-110Zm68-172-79-53 84-42Zm-76-53 75 50 6-91Zm0 0"/><path d="m880 300-20-21 70-9Zm-17-19 15 18 49-28Zm0 0"/><path d="m860 281-6-64 77 53Zm-5-61 7 61 66-11Zm7 224-11-85 80 35Zm-10-83 10 82 68-49Zm0 0"/><path d="m930 394-50-94 53-30Zm-50-94 50 91V270Zm0 0"/><path d="m931 394-80-35 27-60Zm-79-35 76 34-48-91Zm2-139 36-102 46 59Zm36-100-35 97 79-41Zm66 782 25-24-3 12Zm24-19-20 15 18-9Zm-103 15 12-88 67 42Zm12-85-11 83 76-45Zm0 0"/><path d="M956 904v-53l25 30Zm0-50v45l24-19Zm0 0"/><path d="m981 883-25-31 22 11Zm-22-31 21 25-2-16Zm0 0"/><path d="m977 864 10-27 6 24Zm10-24-7 23 12-2Zm-48-229h-20l34-57Zm-18-1h16l14-52Zm-34 350-10-65 73 51Zm-9-61 11 61 57-15Zm0 0"/><path d="M921 610h-12l44-56Zm-11 0h9l29-47Zm0 0"/><path d="m953 555-76-24 24-17Zm-73-26 70 23-49-36Zm0 0"/><path d="m910 610-33-81 76 25Zm-30-79 30 76 41-52Zm0 0"/><path d="m953 555-52-41 1-6Zm-51-41 40 30-38-33Zm46 432-73-50 81 5Zm-68-48 68 45 6-41Zm85-209-70-61 77 15Zm-66-58 64 55 9-41Zm0 0"/><path d="m974 646-79-15 44-21Zm-76-15 73 14-32-34Zm0 0"/><path d="m974 648-37-38 16-56Zm-35-38 32 33-18-86Zm-50 203-85-46 162-81Zm-84-46 84 43 73-121Zm0 0"/><path d="m804 769 92-140 69 58Zm92-137-91 134 158-79Zm101-177-67-58 88 35Zm-63-58 61 55 21-21Zm46 486-3-20 16-3Zm0-20v15l12-15Zm0 0"/><path d="m963 687 9-42 35 30Zm9-41-7 40 41-11Zm75 61 30-25-2 11Zm28-21-24 15 23-11ZM956 852l-67-41 100 28Zm-64-39 64 39 30-12Zm0 0"/><path d="m989 839-102-28 76-125Zm-100-28 98 26-24-148Zm41-415V268l65 56Zm0-125v122l63-69Zm76 405-34-30v-1l46 27Zm-28-27 28 26 9-3Zm0 0"/><path d="m1016 434-86-40 65-71Zm-85-41 85 38-23-107Zm0 0"/><path d="m1016 432-86-35v-4Zm-85-35 53 22-53-25Zm0 0"/><path d="m902 511 29-115 67 57Zm29-112-27 109 91-55Zm0 0"/><path d="m953 555-51-45 96-58Zm-49-45 49 44 42-99Zm167-305-14-32 41 24Zm-11-31 11 29 24-7Zm-53 778-53-50 24-13Zm-51-50 50 46-28-58Zm104-669-126-57 100-18Zm-121-56 120 55-26-73Zm0 0"/><path d="m1009 952-61-6 6-45Zm-61-7 58 6-50-47Zm-18-674 6-95 124 56Zm6-94-5 91 126-36Zm161 422-25-30 23-22Zm-23-30 21 27v-45Zm0 0"/><path d="M1060 232h-1l9-30 3 1Zm8-29-5 18 6-18m-44 232-9-3 61-73h1Zm-7-3 6 2 45-62Zm0 0"/><path d="m1016 434-23-113 85 37Zm-21-108 23 106 60-73Zm2 129 19-21 9 1Zm19-21-15 15 21-15Zm0 0"/><path d="m997 455 27-20 7 5Zm27-20-21 15 25-12Zm-35 404h-3l50-69 9 5Zm50-67-42 56 47-53Zm0 0"/><path d="m986 840-21-154 76 86Zm-21-151 22 148 50-65Zm107-34h-1l3-89 23 30Zm2-85-2 82 23-54Zm-67 382-30-63 70 45Zm-27-60 27 59 37-15Zm0 0"/><path d="m1045 936-68-46 3-10Zm-67-46 58 38-55-45Zm0 0"/><path d="m1045 936-65-55 13-21Zm-64-56 61 51-50-68Zm91-675-4-2-9-29Zm-4-3h1l-6-14Zm-21 505-85-20 45-12Zm-81-20 78 18-38-30Zm0 0"/><path d="m1039 773-76-87 84 19Zm-74-87 72 83 8-64Zm0 0"/><path d="m1047 707-43-32 12-3Zm-40-31 35 26-26-30Zm47 254 5-70 15 24Zm5-66-5 61 18-41Zm0 0"/><path d="m1044 936 15-73-5 67Zm15-64-14 61 8-3Zm124-625 3-26 52-10Zm3-24v23l49-34Zm0 0"/><path d="m1045 937-53-76h68Zm-52-76 52 73 14-71Zm66-626-26-76 35 43Zm-23-74 23 69 9-27Zm0 0"/><path d="m993 326-65-56 134-40Zm-62-56 62 53 64-91Zm137 547-21-42 30 42Zm-15-30 15 29h4Zm-38-114 59-106-2 90Zm59-103-58 102 53-15Zm0 0"/><path d="m1047 777-10-5 25-29Zm-8-5 6 3 14-27Zm0 0"/><path d="m1037 773 8-69 17 39Zm10-65-8 61 23-26Zm-61 132 61-67 22 44Zm59-63-56 60 79-21Zm0 0"/><path d="m1059 863-72-24 78 10Zm-66-23 66 21 4-12Zm0 0"/><path d="m1065 851-76-12 80-23Zm-75-12 75 10 3-32Zm78-636-35-45 26 15Zm-32-42 30 39-7-26Zm26 585-15-39 22 26Zm-14-36 15 32 5-9Zm165-398 6-36h61Zm8-35-5 34 63-34Zm0 0"/><path d="m1065 849 3-33h6Zm4-32-3 25 6-25Zm-53-144-45-28 103-76Zm-42-28 42 27 56-102Zm148-421-53-21 28-7Zm-50-21 49 18-24-24Zm114 43-61-19v-1l61-5Zm-59-19 58 19v-23Zm0 0"/><path d="m1077 686-61-13v-3l56-16Zm-61-16 58 11-5-26Zm59-101-124-15 46-101Zm-121-15 118 13-75-112Zm77-116-7-4 53-75h1Zm-6-4 5 3 39-64Zm22 273 28-15v9Zm27-15-24 13 24-4Zm0 0"/><path d="m1069 734-24-29 30-6Zm-22-27 21 24 6-30Zm0 0"/><path d="m1047 707-32-35 62 12Zm-31-34 31 32 27-21Zm-24-347 67-94 50 53Zm67-93-64 91 112-39Zm0 630 6-15 24 13Zm6-12-5 10h26Zm65-85-18-20 10-10Zm-15-20 15 17-8-26Zm-41-177-77-114v-2l98 96Zm-74-111 75 109 17-18Zm0 0"/><path d="m1094 549-99-96 35-15Zm-96-96 94 91-62-106Zm61-220 12-30 54 20Zm12-30-11 29 61-9Zm132 481-134-29 134-18Zm-128-29 126 27 2-42Zm38 91-53-1 8-12Zm-50-3 46 2-41-11Zm44-458 79-39 11 30Zm78-38-75 37 85-10Zm-122 604 9-35 37 14Zm11-34-9 31 41-18Zm73-374-70-82 91 33Zm-67-82 65 80 20-48Zm0 0"/><path d="m1044 777 18-34 51 3Zm18-32-15 30 63-29Zm0 0"/><path d="m1074 817-30-42 71-30Zm-27-42 25 39 40-66Zm89-429-30-61 91-11Zm-27-61 27 58 58-67Zm-50-52v-3l63-9 3 5Zm63-9-42 6 44-4Zm0 0"/><path d="m1115 746-47-13 6-34Zm-46-15 41 15-35-45Zm154-454-28-1v-2h24Zm-17-3 15 2h-17"/><path d="m1122 737-48-36v-11Zm-45-36 36 28-38-36Zm0 0"/><path d="m1122 737-48-45v-10Zm-47-45 38 36-36-42Zm93-298-91-35 61-15Zm-88-35 85 32-30-45Zm0 0"/><path d="m1113 746-39-45 50 35Zm-36-41 35 41 9-9Zm30 125-35-14 53-21Zm-32-14 31 12 16-30Zm0 0"/><path d="m1072 817 41-72 11 51Zm40-69-38 66 48-18Zm92-108-109-42 100 9Zm-104-42 103 40-9-30Zm7-311-48-57 68-6Zm-45-54 47 51 15-57Zm185 524-46-75 49 38Zm-43-71 41 68 3-34Zm0 0"/><path d="m1077 361 30-77 31 60Zm30-76-29 74 58-15Zm15-58 32-45 34 41Zm34-45-31 44 61-5Zm-9 262-117-6v-1l117 6Zm0 0"/><path d="m1095 549-67-112 119 6Zm-64-109 64 109 50-103Zm91-216-27-28 61-16Zm-24-27 24 26 31-40Zm0 0"/><path d="m1147 443-119-5 50-79Zm-116-6 114 6-67-82Zm184-125-20-36 26 1Zm-17-36 18 33 5-32Zm-101-79-38-23 95 8Zm-35-23 35 22 56-11Zm0 0"/><path d="m1124 227-2-4 32-41Zm0-4v3l21-30Zm0 0"/><path d="m1107 287 17-61 62 20Zm18-61-18 59 76-38Zm22 220-2-3 20-50h1Zm0 0"/><path d="m1195 276-10-30 36 28Zm-9-27 9 25h23Zm9 359-100-10v-49zm-98-12 95 11-97-56Zm151 124-47-38 2-45Zm-45-38 45 35-44-75Zm-53 90-28-36 79-54Zm-26-36 26 33 48-83Zm0 0"/><path d="m1122 737-48-53 130-2Zm-45-53 45 52 78-54Zm0 0"/><path d="m1075 686-4-31 130 27Zm-3-31 3 27h122Zm-1 0 24-59 109 42v2Zm26-57-25 57 129-15Zm69-204-30-50 80-35Zm-30-50 30 47 47-79Zm0 0"/><path d="M1138 344h-2l61-70 19 37Zm57-68-57 67 75-32Zm0 0"/><path d="m1165 394 50-83 52 26Zm50-82-47 79 97-54Zm-11 328-10-33 41-11Zm-9-32 9 30 28-40Zm-47 162 53-89 46 76Zm53-86-48 85 94-15Zm0 0"/><path d="m1194 608 57-117-16 107Zm56-114-55 113 38-11Zm15-157 15-61 52 11Zm17-61-15 59 62-47ZM1251 491l-106-47 20-53Zm-104-48 103 45-84-94Zm0 0"/><path d="m1195 608-101-61 159-57Zm-98-59 98 58 56-114Zm0 0"/><path d="m1235 598 18-108 26 38Zm16-107-16 103 41-65Zm0 0"/><path d="m1092 549 55-106 106 48Zm55-105-52 105 155-56Zm74-167-2-3 38-41Zm0-3 21-24Zm0 0"/><path d="m1219 274 19-63 21 22Zm20-60-18 57 36-38Zm37 314-26-38 57 13Zm-23-37 24 35 27-23Zm105 157-28-31 32-21Zm-26-31 24 28 6-46Zm0 0"/><path d="m1330 617 15-70 17 51Zm15-66-13 65 30-20Zm26-110 20-30-6 27Zm18-27-15 26 11-3Zm-170-137 38-45 25 45Zm38-42-34 41h57Zm47 170-141-12 102-58Zm-136-12 135 10-38-66Zm138 110-55-12 69-3Zm-50-12 50 11 9-12Zm0 0"/><path d="m1251 491 53-89 13 86Zm52-86-50 85 64-2Zm18 261-88-68v-4l99 20Zm-85-68 85 65 9-46Zm0 0"/><path d="m1251 493-86-102 139 12Zm-83-100 83 97 52-85Zm152 271-116-24 31-46 88 70m-117-24 114 23-85-65Zm0 0"/><path d="m1248 720-45-82 120 26Zm-42-80 44 79 70-55Zm126-23-99-21 43-70Zm-97-21 95 20-54-88Zm0 0"/><path d="m1307 731-40-5 54-62Zm-37-5 37 3 13-63Zm0 0"/><path d="m1268 726-20-6 72-56h1Zm-18-6 18 6 49-59Zm70-56 10-47-6 47Zm7-26-6 26h2Zm0 0"/><path d="m1336 675-16-11h4l14 9m-14-10 5 3Zm0 0"/><path d="m1307 731 14-68 15 10Zm16-67-16 61 29-52Zm0 0"/><path d="m1336 675-15-11 30-18Zm-12-11 12 9 12-24Zm0 0"/><path d="m1358 661-8-15h8Zm-7-13 5 9v-9Zm-3-99-74-20 30-26Zm-71-21 68 19-39-42Zm0 0"/><path d="m1332 619-56-91 71 21Zm-55-91 53 88 15-67ZM1323 666l7-50 21 32Zm9-47-8 44 26-15Zm-28-214-42-68 91 10Zm-39-68 38 66 45-54Zm0 0"/><path d="m1353 349-90-12 67-50Zm-86-12 84 10-21-59Zm131 53-45-46 52 9Zm-40-44 39 41 6-34Zm-8 302-20-31 28 31Zm-15-23 15 24 6-1Zm0 0"/><path d="m1351 349-21-61 26 58Zm-15-46 15 44 3-3Zm2 372-2-2 15-27 7 12Zm12-26-12 23 18-14Zm11-118-55-28 11-15Zm-54-28 51 25-41-38Zm40 46-43-46 57 28Zm-38-44 38 42 14-15Zm8-17-14-85 71 37Zm-13-83 13 82 54-46Zm88 194-30-1 15-51Zm-30-3 30 2-15-46Zm0 0"/><path d="M1377 549h-32l16-20Zm-30 0h29l-15-17Zm15 50-15-50h30Zm-15-50 15 45 14-45Zm38-111 6-27 4 24Zm6-24-5 23 8-2Zm0 0"/><path d="M1391 412v-1l9-18 5 7Zm9-16-6 12 9-8Zm-23 153-16-18 24-23Zm-15-18 15 16 6-36Zm0 0"/><path d="m1361 532-46-44h2l68 22Zm-41-44 41 41 22-21Zm0 0"/><path d="m1385 511-70-23 58-48Zm-65-23 65 22-11-69Zm72-76-91-7 50-58Zm-88-9 85 8-36-62Zm0 0"/><path d="m1373 441-69-36 90 6Zm-67-36 67 35 16-29Zm50 244 6-53 30 2Zm6-51-4 45 33-44Zm0 0"/><path d="m1385 511-12-71 22 63Zm-11-64 11 61 7-6Zm0 0"/><path d="m1392 503-21-63 31 18Zm-18-60 18 57 8-41Zm17-31v-1l6-24 5 7Zm6-22-5 16 8-12Zm0 0"/><path d="m1391 412-40-65 46 41Zm-37-60 37 57 6-21Zm0 0"/><path d="m1397 388-46-41 5-3Zm-44-41 33 31-30-32Zm49 111-31-18 15-3Zm-28-15 24 15-13-18Zm0 0"/><path d="m1402 458-19-20 12-3Zm-16-20 16 18-8-19Zm6 163-16-54 35 22Zm-15-50 15 45 17-26Zm15-48 10-45 3 35Zm10-39-8 36 9-9Zm-7-29-4-24 14-12Zm-4-24 4 21 8-30Zm35 237-8-5 9-35Zm-6-6 6 3v-31Zm0 0"/><path d="m1426 610-11-31 12-7v38Zm-9-31 10 26-1-30Zm0 0"/><path d="m1392 599 17-30 8 10Zm19-29-16 26 20-17Zm0 0"/><path d="m1356 648 36-50 28 45Zm36-49-34 46 60-3Zm-57 76 21-17 70 15Zm21-15-18 13h83Zm0 0"/><path d="M1356 660v-15l62-3Zm0-12v10l58-15Zm65-205-27-8 9-36Zm-26-8 25 5-15-38Zm0 0"/><path d="m1402 459-8-24 27 6Zm-7-22 7 21 16-17Zm5-41-3-8 26-7Zm-2-8 4 5 16-11Zm0 0"/><path d="m1403 402-3-8 23-15v2Zm-1-8 1 5 15-15Zm15 185-8-10 18 4Zm-6-9 6 9 7-6Zm9 75-31-46 40 9Zm-26-46 24 43 9-32Zm0 0"/><path d="m1429 610-38-11 26-21Zm-37-11 34 9-9-27Zm-16-50 7-39 52 12Zm9-38-8 36 55-25Zm26 59-35-21 59-27Zm-34-21 32 20 23-46Zm23-91 20-18 36 18Zm20-15-17 15 50-2Zm0 0"/><path d="m1433 523-41-21 11-11Zm-39-21 36 18-27-27Zm0 0"/><path d="m1426 573-17-3 24-48Zm-15-4 15 3 7-46Zm0 0"/><path d="m1433 523-50-13 11-8Zm-47-13 43 10-35-17Zm17-17v-2l61-15 3 14Zm59-15-53 13 56-3Zm-42-35-18-46 51 35-33 9Zm-15-41 15 38 30-8Zm0 0"/><path d="m1433 523-30-32 64-3Zm-28-30 30 29 30-32Zm0 0"/><path d="m1403 493-3-35 58-2Zm0-34v31l50-32Zm0 0"/><path d="M1403 493v-2l53-35 8 20Zm53-35-48 32 56-15Zm-30 115 7-51 32-34Zm9-50-8 46 37-76ZM3 704q-2 1-3-3 2-4 3-3 2-1 3 3-2 4-3 3m114 547s-5 0-5-4c0-5 3-3 5-3q2-1 3 3-1 4-3 4m27-796q-1 1-3-3 2-4 3-3 2-1 3 3 0 4-3 3m0 199q-1 1-3-3 2-5 3-5 2-1 3 5 0 4-3 3m3 214s-4 0-4-4q1-4 4-3 3-1 3 3-2 5-3 4m5 9s-5 0-5-3q1-4 3-3 1-1 3 3 0 4-3 3m2-355q-1 1-3-3 1-4 3-3 2-1 3 3-1 4-3 3m0 323q-1 1-3-5 1-4 3-3 2-1 3 3-1 5-3 5m1-376q-1 1-3-5c0-5 3-3 3-3q2-1 3 3-1 5-3 5m2 383-3-1 3-3q3 0 4 3 2 3-4 3m3-331q-1 1-3-3 2-4 3-3 2-1 3 3-1 4-3 3m0 396q-1 1-3-4c0-5 3-3 3-3q2-1 3 4c0 5-3 3-3 3m3-408q-1 1-3-3 2-4 3-3 2-1 3 3-1 4-3 3m6 372q-2 1-3-3 2-4 3-3 1-1 3 3-2 4-3 3m4 35q-1 1-3-3 1-5 3-5 2-1 3 5-1 5-3 3m2-320s-5 0-5-4q1-4 3-4s5 0 5 4q-2 6-3 4m4 144s-4 0-4-3q1-4 4-3 3-1 3 3-1 4-3 3m0 176q-1 1-3-5c0-5 3-3 3-3q2-1 3 3-1 5-3 5m0-111q-1 1-3-3 2-4 3-3 2-1 3 3 0 4-3 3m2-73s-5 0-5-3q1-4 5-3 2-1 3 3-1 4-3 3m1-158s-4 0-4-4c0-5 3-3 4-3q4-1 4 3c0 3-4 4-4 4m5 340q-1 1-3-3 1-5 3-5 3-1 3 5c0 5-3 3-3 3m3-144s-4 0-4-3q2-4 3-3s4 0 4 3q-2 4-3 3m6-86s-4 0-4-5 3-3 4-3q3-1 3 3-1 4-3 3m3-176s-4 0-4-3q1-5 3-5s4 0 4 5-3 3-3 3m0-129q-1 1-3-3 2-4 3-3s5 0 5 3q-1 4-5 3m0 614-1-4c0-5 3-3 3-3q2-1 3 3-1 4-3 4m0-682q-1 1-3-3 1-4 3-3 2-1 3 3-1 4-3 3m0 259q-1 1-3-3 1-4 3-4s4 0 4 4c0 5-3 3-4 3m1-173-3-1 3-5 3 5q-1 5-3 3m0 560q-1 1-3-3 2-5 3-4 2-1 3 4-1 4-3 4m0 9q-1 1-3-3 2-4 3-4 2-1 3 4c0 5-3 3-3 3m3-617q-1 1-3-2l3-4 3 4q0 4-3 3m0 524q-1 1-3-3 2-4 3-3 2-1 3 3-1 4-3 3m0 104q-1 1-3-3 2-4 3-4 2-1 3 4c0 5-3 3-3 3m0-609q-1 1-3-4 2-4 3-3 2-1 3 3-1 5-3 4m0 888q-1 1-3-3 2-4 3-3 2-1 3 3-1 4-3 3m2-493q-1 1-3-4c0-5 1-3 3-3q2-1 3 4c0 5-3 3-3 3m1 367q-1 1-3-3 2-4 3-3s5 0 5 3q-1 4-5 3m2-412q-2 1-3-3 2-4 3-3 1-1 3 3-2 4-3 3m6 297q-1 1-3-4c0-5 3-3 3-3q2-1 3 4c0 5-3 3-3 3m4-485q-1 1-3-2l3-4 3 4q0 5-3 3m5 278q-1 1-3-3 2-4 3-3 2-1 3 3-1 4-3 3m3-285s-5 0-5-3q2-5 3-5s5 0 5 5q-2 5-3 3m0-122s-5 0-5-4c0-5 3-3 5-3q3-1 3 3-2 4-3 4m2 609s-5 0-5-3q2-4 3-3 2-1 3 3-2 4-3 3m2-695s-5 0-5-3q1-5 5-5 2-1 3 5-2 5-3 3m0 238s-4 0-4-3 4-3 4-3 4 0 4 3q-1 4-4 3m3 41q-2 1-3-3 0-4 3-3 2-1 3 3-1 4-3 3m9 410q-1 1-3-3 2-4 3-3 2-1 3 3-1 4-3 3m1-415q-1 1-3-3 2-4 3-3 2-1 3 3-1 4-3 3m2-273q-1 1-3-3 2-4 3-3s4 0 4 3q-1 4-4 3m1 619q-1 1-3-3 2-4 3-3 2-1 3 3-1 4-3 3m5 67q-2 1-3-3 2-4 3-3 1-1 3 3-2 4-3 3m1-604q-2 1-3-4c0-5 3-3 3-3q1-1 3 3-1 4-3 4m2 185s-5 0-5-4c0-5 3-3 5-3q2-1 3 3-2 4-3 4m3 419q-2 1-3-3 1-4 3-3 1-1 3 3-2 4-3 3m0-144q-2 1-3-3 1-4 3-3 1-1 3 3-2 4-3 3m0-329q-2 1-3-5 1-4 3-3 2-1 4 3-1 4-4 3m1-203q-1 1-3-5 1-4 3-3 3-1 3 3-2 6-3 5m2 83-5-1 3-3 5 3q0 5-5 3m2 126q-2 1-3-3 1-4 3-3s4 0 4 3q-1 4-4 3"/><path d="M261 546q-2 1-3-3 1-4 3-3s4 0 4 3q-1 4-4 3m3 546q-1 1-3-5 1-4 3-3s4 0 4 5-3 3-4 3m1 134s-4 0-4-5 3-3 4-3q3-1 3 3-1 5-3 5m0-672s-4 0-4-3q1-5 4-5 3-1 3 5-1 5-3 3m8 359q-1 1-3-3 2-4 3-3 2-1 3 3-1 5-3 5m5-451s-5 0-5-3q1-4 5-3 2-1 3 3-2 4-3 3m0-168q-2 1-3-3 1-5 3-5 1-1 3 5-2 4-3 3"/><path d="M281 302q-2 1-3-3 1-5 3-5 1-1 3 5-1 5-3 3m0-21q-2 1-3-4 1-4 3-3 1-1 3 3-1 5-3 4m0 637q-2 1-3-3 1-5 3-5s4 0 4 5q-1 5-4 3m3 97q-1 1-3-3 0-4 3-3 2-1 3 3-1 4-3 3m4-229-1-3q2-4 3-3 2-1 3 3-1 4-3 3m1-434q-1 1-3-3 2-5 3-5s5 0 5 5q-1 4-5 3m5 206s-5 0-5-3q1-4 5-3 2-1 3 3-2 4-3 3m0-234q-1 1-3-3 2-4 3-3s4 0 4 3q-1 4-4 3m1-144q-2 1-3-3 1-4 3-3 1-1 3 3-2 4-3 3m5 181q-2 1-3-3 1-4 3-3 1-1 3 3-1 4-3 3m1 214s-4 0-4-3q1-5 3-5s4 0 4 5q-1 4-4 3m1 431s-4 0-4-3q1-5 4-4 3-1 3 4-1 4-3 3m0 301-3-1 3-5 3 5q0 5-3 3m8-1006s-5 0-5-3q1-4 5-3 2-1 3 3-1 4-5 3m13 590q-2 1-3-3 0-4 3-3 2-1 3 3-1 4-3 3m3-374s-5 0-5-3q1-4 5-3 2-1 3 3-1 4-5 3m5 227-3-1 3-5 3 5q0 5-3 3m3-424q-1 1-3-3 2-4 3-3 2-1 3 3-1 4-3 3"/><path d="M332 751s-4 0-4-3q1-4 4-3 3-1 3 3-1 4-3 3m6-540s-4 0-4-3q1-4 4-3 3-1 3 3-2 4-3 3m2 29q-2 1-3-3 1-5 3-5 1-1 3 5-2 5-3 3m1 618q-2 1-3-4c0-5 3-3 3-3q1-1 3 3-2 4-3 4m2 202q-2 1-3-4c0-5 3-3 3-3q1-1 3 3-1 4-3 4m6-104s-5 0-5-4q1-4 3-4s5 0 5 4q-1 6-5 4m2 241q-1 1-3-5 2-4 3-3 2-1 3 5-1 5-3 3m4-56s-4 0-4-2l4-5 3 5q-2 5-3 3M358 1138q-1 1-3-5c0-5 3-3 3-3q2-1 3 3-2 5-3 5m0 31q-1 1-3-3 2-4 3-4 2-1 3 4c0 5-3 3-3 3m3-180s-5 0-5-3q1-4 5-3 3-1 3 3-2 4-3 3m0 158q-2 1-3-3 2-4 3-3 1-1 3 3-2 4-3 3m0-530q-2 1-3-3 2-4 3-3s5 0 5 3q-1 4-5 3m3 560s-5 0-5-3 4-3 4-3 4 0 4 3q-1 4-4 3m1-718q-2 1-3-3 1-4 3-3 1-1 3 3-1 4-3 3m3 428s-4 0-4-3q1-4 4-3 3-1 3 3-1 4-3 3m3-690q-1 1-3-4 2-6 3-4 2-1 3 4-1 4-3 4m2 745s-5 0-5-3q1-4 5-3 2-1 3 3-1 4-5 3m5-689q-1 1-3-3 2-4 3-4 2-1 3 4c0 5-3 3-3 3m1 630s-4 0-4-3q1-4 4-3 3-1 3 3-2 4-3 3m0 124q-2 1-3-3 2-4 3-3 1-1 3 3 0 4-3 3m9-27s-4 0-4-5q1-4 4-3 3-1 3 3-1 5-3 5m2-651s-5 0-5-5q1-4 5-3 2-1 3 5c0 5-3 3-3 3m3 410q-1 1-3-3 2-4 3-3s4 0 4 3q-1 4-4 3m1 309q-1 1-3-3 2-5 3-5s5 0 5 5-3 3-5 3m5-743q-2 1-3-3 2-5 3-5 1-1 3 5-1 5-3 3m6 754s-5 0-5-5q1-4 5-3 2-1 3 3-1 5-5 5m3 244q-2 1-3-5 2-4 3-3s4 0 4 3-4 5-4 5m7-344s-5-2-5-5q1-4 3-3s5 0 5 3q-1 4-5 3m2-476q-1 1-2-3 1-4 3-3 3-1 3 3-1 4-3 3m0-114q-1 0-3-2l3-4 3 4q0 4-3 3m2 79s-5 0-5-4c0-5 3-3 5-3q2-1 3 3-1 4-3 4m0 769q-1 1-3-4c0-5 3-3 3-3s4 0 4 3q-1 4-4 3m3-205s-5 0-5-4c0-5 3-3 5-3q2-1 3 3-2 4-3 4m1-376s-4 0-4-5q1-4 4-3 3-1 3 3-1 5-3 5"/><path d="M417 447q-1 1-3-3 2-4 3-3 2-1 3 3-1 4-3 3m2 401q-2 1-3-5 2-4 3-3 1-1 3 3-2 5-3 5m3-602s-5 0-5-3q1-4 5-3 2-1 3 3-2 4-3 3m6 4q-1 1-3-4c0-5 3-3 3-3s4 0 4 3q-1 4-4 4m3 523q-1 1-3-4c0-5 3-3 3-3s4 0 4 3q-1 4-4 4m1-221s-4 0-4-5q1-4 4-3 3-1 3 3-1 6-4 5m1-202q-1 1-3-4c0-5 3-3 3-3s5 0 5 3q-1 4-5 4m8 457s-5 0-5-3q2-4 3-3s5 0 5 3q-1 4-5 4m16 154s-4 0-4-3 4-3 4-3q2-1 3 3-1 4-3 3m1-633q-1 1-3-3 2-4 3-3s5 0 5 3q-1 4-5 3m8 443q-2 1-3-3 2-4 3-3 1-1 3 3-2 4-3 3m3 526s-5 0-5-3q1-4 5-3 2-1 3 3-1 4-5 3m5-467q-1 1-3-3 1-4 3-3 2-1 3 3-1 4-3 3"/><path d="M470 828q-1 1-3-3 1-4 3-3s5 0 5 3q-1 4-5 3m11 401q-2 1-3-3 1-5 3-5 1-1 3 5-2 5-3 3m1-337q-1 1-3-3 2-4 3-3 2-1 3 3-2 4-3 3m3 256s-4 0-4-3q1-4 3-4 1-1 3 4c0 5-3 3-3 3m17-889q-2 1-3-3 2-4 3-3s4 0 4 3q-1 4-4 3m3 791q-2 0-3-5 1-4 3-3 1-1 3 3-2 4-3 3"/><path d="M505 267q-2 1-3-5 2-4 3-3 1-1 3 3-1 5-3 5m2 714q-2 1-3-4c0-5 3-3 3-3s4 0 4 3q-1 4-4 4m12-619q-2 1-3-3 2-4 3-3 1-1 3 3-2 4-3 3m1 443q-1 1-3-3 2-4 3-3s5 0 5 3q-1 4-5 3m6 72q-2 1-3-3 2-4 3-3 1-1 3 3-1 4-3 3m0-410q-2 1-3-4 2-6 3-4 1-1 3 5c0 5-1 3-3 3m3 945q-1 1-3-4 1-6 3-4 2-1 3 4-1 4-3 4m2-548s-5 0-5-3q1-4 5-3 2-1 3 3-1 4-3 3m0-163q-1 1-3-5 1-4 4-3 3-1 3 3-1 5-4 5m0 36q-1 1-2-4 2-6 3-4 2-1 3 4-1 4-3 4m0 181q-1 1-3-3 2-4 3-3 2-1 3 3-1 4-3 3m3-616q-1 1-3-3 2-4 3-3 2-1 3 3-1 4-3 3m2 135q-1 1-3-3 2-4 3-3 2-1 3 3-1 4-3 3m0-244q-1 1-3-4 2-4 3-3 2-1 3 3-1 5-3 4m0 277q-1 1-3-3 2-4 3-3 2-1 3 3-1 4-3 3"/><path d="M537 305q-1 1-3-3 2-5 3-5s4 0 4 5q-1 5-4 3m3 232q-1 1-3-3 2-4 3-3 2-1 3 3-1 4-3 3m9 182s-4 0-4-3q1-4 4-3 3-1 3 3-1 4-3 3m2 14q-1 1-3-4 1-4 3-3 2-1 3 3-1 5-3 4m13-43q-2 1-3-3 1-5 3-5s5 0 5 5-3 3-5 3m2-472q-2 1-3-3 0-4 3-3 2-1 3 3-2 4-3 3m1 677q-2 1-3-3 1-4 3-3 1-1 3 3-1 4-3 3m8-677s-5 0-5-3q1-4 5-4 2-1 3 4c0 5-3 3-3 3m3 395q-1 1-3-5 2-4 3-3 2-1 3 3-2 5-3 5m3 69q-2 1-3-3 2-4 3-3 1-1 3 3-2 4-3 3"/><path d="M581 613q-2 1-3-3 2-4 3-3 1-1 3 3-2 4-3 3m1 484q-1 1-3-3 2-4 3-3 2-1 3 3-2 4-3 3m0-457q-1 1-3-5 2-5 3-3 2-1 3 3-2 4-3 3m0 219q-1 1-3-3 2-4 3-3 2-1 3 3-2 4-3 3"/><path d="M584 855s-5 0-5-4c0-5 3-3 5-3q2-1 3 3-1 4-5 4m2-210q-2 1-3-3 1-5 3-5 1-1 3 5-2 5-3 3m11-267q-1 1-3-5c0-5 3-3 3-3q2-1 3 3-1 5-3 5m0-163q-1 1-3-3 2-4 3-3 2-1 3 3-1 4-3 3m0 501q-1 1-3-3 2-4 3-3s4 0 4 3q-1 4-4 4m12 451q-2 1-3-3 1-4 3-3 1-1 3 3-2 4-3 3m0-77q-2 1-3-5c0-5 3-3 3-3s4 0 4 3q-1 5-4 5m1-352q-2 1-3-3 1-4 3-3s5 0 5 3q-1 4-5 3m8 480q-1 1-3-3 2-4 3-4 2-1 3 4c0 5-3 3-3 3m0-1058q-1 1-3-3 2-4 3-3 2-1 3 3-1 4-3 3m17 931s-4 0-4-3 4-5 4-5q2-1 3 5c0 5-3 3-3 3m4-960s-4 0-4-3q2-5 3-5s4 0 4 3q-1 5-4 5"/><path d="M637 138q-1 1-3-5 1-4 5-3 2-1 3 3-1 5-3 5m0 6q-1 1-3-3 2-4 3-3 2-1 3 3-1 4-3 3m3 945q-1 1-3-3 2-4 3-3 2-1 3 3-1 4-3 3m4-546q-2 1-3-3 1-4 3-3 1-1 3 3-2 4-3 3m2 206q-2 1-3-3 2-4 3-4 1-1 3 4c0 5-3 3-3 3m4-271s-4 0-4-3q1-4 4-3 3-1 3 3-1 4-3 3m3 670q-1 1-3-3 2-4 3-3 2-1 3 3-1 4-3 3m2-937q-1 1-3-3 0-5 3-5 2-1 3 5-1 4-3 3m1 91q-1 1-3-3 2-4 3-3 2-1 3 3-1 4-3 3m0 836q-1 1-3-5c0-5 3-3 3-3s5 0 5 4q-1 6-5 4m3-32q-1 1-3-3 2-4 3-3 2-1 3 3-1 4-3 3m0-681q-1 1-3-3 2-5 3-5 2-1 3 5-1 4-3 3m2 389q-2 1-3-4c0-5 3-3 3-3q1-1 3 4c0 5-3 3-3 3m4 196q-2 1-3-4c0-5 3-3 3-3s5 0 5 3q-1 4-5 4m6 55q-1 1-3-3 1-4 3-3 2-1 3 3-1 4-3 3m2-295s-5 0-5-3q1-4 5-3 2-1 3 3-1 4-5 3m5 189q-1 1-3-3 2-5 3-5 2-1 3 5-1 5-3 3m2 115s-5 0-5-5q1-5 5-3 2-1 3 3-2 5-3 5m9-118q-2 1-3-4 1-4 3-4 1-1 3 4-2 6-3 4m3-431s-5 0-5-3q1-4 5-3 2-1 3 3-1 4-3 3m3-442s-5 0-5-3q1-4 5-3 2-1 3 3-1 4-5 3m2 1009q-1 1-3-3 1-4 3-3 2-1 3 3-1 4-3 3m3-42s-5 0-5-3q1-5 5-4 2-1 3 5c0 5-3 3-5 3m2-209s-5 0-5-3q1-5 5-5 2-1 3 5-1 5-5 3m2-662q-1 1-3-3 1-4 4-3 3-1 3 3-2 4-3 3m2 976s-5-2-5-5q1-4 5-3 2-1 3 3-1 4-3 3m0 55q-1 1-3-3 2-4 3-3 2-1 3 3-1 4-3 3m6-411s-5 0-5-3q1-4 5-3 2-1 3 3-2 4-3 3m3-449q-2 1-3-5 2-4 3-3 1-1 3 3-1 5-3 5m3 182s-5 0-5-3q1-5 3-5s5 0 5 5q-1 5-5 3m6 512s-4 0-4-3q1-4 4-4 3-1 3 4c0 5-3 3-3 3m3-215q-1 1-3-3 2-4 3-3s4 0 4 3-4 3-4 3"/><path d="M724 822s-5 0-5-3q1-4 5-3 2-1 3 3-1 4-3 3m4 187s-4 0-4-3q1-4 4-3 3-1 3 3-2 4-3 3m0 192q-2 1-3-4c0-5 3-3 5-3q2-1 3 3-1 4-5 3m0-150q-2 1-3-3 1-5 5-4 2-1 3 4-1 4-5 4m0 296-1-3q2-4 3-3 1-1 3 3-2 4-3 3m3-372s-5 0-5-3q1-4 5-3 2-1 3 3-1 4-5 3m5-32q-1 1-3-3 1-4 3-3 2-1 3 3-1 4-3 3m1-27s-4 0-4-4q1-6 4-4 3-1 3 5c0 5-3 3-3 3m3-731q-1 1-3-3 2-4 3-3 2-1 3 3-1 4-3 3m2 613s-5 0-5-3q1-4 5-3 2-1 3 3-2 4-3 3m0-11s-5 0-5-3q1-4 5-3 2-1 3 3-2 4-3 3m0 20q-1 1-3-3 2-4 3-3 2-1 3 3-2 4-3 4m3-529q-2 1-3-3 2-4 3-3 1-1 3 3-2 4-3 3m0 795q-2 1-3-3 2-5 3-5s4 0 4 5q-1 5-4 3m1 70s-4 0-4-3q1-5 4-5 3-1 3 5-1 5-4 3m1-606q-1 1-3-3 2-4 3-3 2-1 3 3 0 4-3 3m0 468q-1 1-3-3 2-5 3-4s5 0 5 4q-1 4-5 3m5-836q-2 1-3-3 1-4 3-3 1-1 3 3-1 4-3 4"/><path d="M752 1003q-2 1-3-5c0-5 3-3 3-3q1-1 3 3-1 5-3 5m6-263-1-3q0-4 3-3 2-1 3 3-1 4-3 3m3-33q-1 1-3-3 2-4 3-3 2-1 3 3-1 4-3 3"/><path d="M764 736q-2 1-3-3 2-5 3-4 1-1 3 4-2 4-3 3m2 168q-1 1-3-5 2-4 3-3 2-1 3 3-2 5-3 5m0-197q-1 1-3-3 2-4 3-3 2-1 3 3-2 4-3 3m1-484q-2 1-3-5 1-4 3-3s4 0 4 3-4 3-4 3m0 807q-2 1-3-3 1-4 3-3s5 0 5 3q-1 4-5 3m2 61q-2 1-3-3 2-5 3-5 1-1 3 5c0 5-3 3-3 3m2-498s-4 0-4-3 4-3 4-3q1-1 3 3-2 4-3 3m0 371s-4 0-4-3 4-5 4-5q1-1 3 5-2 5-3 3"/><path d="M771 1084s-4 0-4-3 4-3 4-3q1-1 3 3-2 4-3 3m0-541s-4 0-4-5c0-4 4-3 4-3s4 0 4 3q-1 5-4 5m3-404s-5 0-5-3q1-4 3-3s5 0 5 3q-1 4-5 3m3 932q-1 1-3-3 1-4 3-3 2-1 3 3-1 4-3 3m0-307q-1 1-3-3 1-4 3-4 2-1 3 4c0 5-3 3-3 3m2-112q-1 1-3-4c0-5 3-3 3-3q2-1 3 3-1 4-3 4m1-64s-4 0-4-3q1-4 4-4 3-1 3 4c0 5-3 3-4 3m1-468q-1 1-3-5 2-4 3-3 2-1 3 3-1 5-3 5m5 1034q-1 1-3-3 2-4 3-4 2-1 3 4c0 5-3 3-3 3m3-611q-1 1-3-3 2-4 3-3 2-1 3 3-1 4-3 3m3 502s-5 0-5-3q1-5 3-5 1-1 3 5c0 5-3 3-3 3m2-648s-5 0-5-3q1-4 5-3 2-1 3 3-1 4-5 3"/><path d="M789 1053q-1 1-2-3 1-5 3-5 1-1 3 5-2 5-3 3m0-771q-2 1-3-3 1-4 3-3 1-1 3 3-2 4-3 3m0 781q-2 1-3-4c0-5 3-3 3-3s5 0 5 4c0 5-3 3-5 3m8-15q-1 1-3-3 2-5 3-5 2-1 3 5c0 5-3 3-3 3m6-278q-1 1-3-3 1-4 4-3 3-1 3 3-1 4-3 3m2-238s-5 0-5-4c0-5 3-3 5-3q2-1 3 4c0 5-3 3-5 3m2-356q-2 1-3-3 2-4 3-3s4 0 4 3q-1 4-4 3m3-9q-2 1-3-3 1-4 3-3 1-1 3 3-2 4-3 3m1 139q-2 1-3-4c0-5 3-3 3-3s5 0 5 3q-1 4-5 3m7 616s-5 0-5-3q1-4 5-3 2-1 3 3-1 4-3 3m3-342q-1 1-3-4c0-5 3-3 3-3s4 0 4 4c0 5-3 3-4 3m1-47q-1 1-3-3 2-4 3-4 2-1 3 4c0 5-3 3-3 3"/><path d="M828 537s-4 0-4-3q1-4 4-3 3-1 3 3-1 4-4 3m1 47q-1 1-3-3 2-4 3-3 2-1 3 3-2 4-3 3"/><path d="M831 543q-2 1-3-3 1-4 3-3 3-1 3 3-2 4-3 3m3 535q-2 1-3-4c0-5 3-3 3-3q1-1 3 3-1 4-3 4m0-808-1-5q1-4 3-3 2-1 3 3-1 5-3 5m0-199q-1 1-3-4c0-5 3-3 3-3q2-1 3 4c0 5-3 3-3 3m6 901q-1 1-3-4c0-5 3-3 3-3q2-1 3 3-1 4-3 4m0-866q-1 1-3-4 2-6 3-4 2-1 3 5c0 5-3 3-3 3m1 746q-1 1-3-3 2-4 3-4 2-1 3 4c0 5-3 3-3 3m9-488q-2 1-3-5 1-4 3-3 1-1 3 3-1 5-3 5m2-143q-2 1-3-3 1-4 3-3 1-1 3 3-1 4-3 3m8 63q-1 1-3-3 2-5 3-4 2-1 3 4-1 4-3 3m0 735q-1 1-3-4c0-5 3-3 3-3q2-1 3 3-1 4-3 3m0-571q-1 1-3-4c0-5 3-3 3-3q2-1 3 4c0 5-3 3-3 3m3 560q-1 1-2-3 2-4 3-3 1-1 3 3-2 4-3 3m11-106q-1 1-3-5 1-4 3-3s4 0 4 3q-1 5-4 5m1-598s-4 0-4-3q1-4 4-3 3-1 3 3-1 4-4 3m1 231q-1 1-3-5 1-4 3-3 2-1 3 3-1 5-3 5"/><path d="M880 303s-5 0-5-3q1-4 5-3 2-1 3 3-1 4-5 3m9 660q-1 1-3-3 2-4 3-4s5 0 5 4c0 5-3 3-5 3m2-149q-2 1-3-3 2-4 3-3 1-1 3 3-2 4-3 3m1-691q-1 1-3-5 2-4 3-3 2-1 3 3 0 5-3 5m5 505s-5 0-5-3q2-4 3-3 1-1 3 3-1 4-3 3m2 400s-5 0-5-3q2-4 3-3s5 0 5 3q-1 4-5 3"/><path d="M896 634q-1 1-3-3 1-5 3-5 2-1 3 5-1 4-3 3m2 359s-5 0-5-4c0-5 3-3 5-3q2-1 3 3-1 4-5 4m5-474q-1 1-3-5 2-4 3-3 2-1 3 3-1 4-3 3"/><path d="M904 513s-5 0-5-3q1-4 5-3 3-1 3 3-1 4-5 3m4 576s-5 0-5-5q1-4 5-3 2-1 3 3-1 5-5 5m6-478s-4 0-4-3q2-4 3-3s4 0 4 3q-1 4-4 3m12 2s-5 0-5-3q1-4 5-3 2-1 3 3-1 4-5 3m5 376s-5 0-5-5q1-4 5-3 2-1 3 5-1 5-3 3m1-909-1-3q0-4 3-3 2-1 3 3-1 4-3 3m3 193q-1 1-3-3 2-4 3-3 2-1 3 3-2 4-3 3m1 124s-4 0-4-3q1-4 4-4 3-1 3 4c0 5-3 3-4 3"/><path d="M931 400s-4 0-4-3q1-4 4-3 3-1 3 3-2 4-3 3m5-220q-2 1-3-3 1-4 3-4 1-1 3 4c0 5-3 3-3 3m3 434s-5 0-5-3q1-4 5-4 2-1 3 4c0 5-3 3-3 3m9 335q-2 1-3-4c0-5 3-3 3-3q1-1 3 4c0 5-3 3-3 3m2-938s-5 0-5-5 3-3 5-3q2-1 3 3-2 5-3 5m0 113-5-1 5-5 3 5q-2 5-3 3m1 873q-2 1-3-3 1-4 3-3 1-1 3 3 0 4-3 3m2-441q-2 1-3-4c0-5 3-3 3-3q1-1 3 4c0 5-3 3-3 3m3 347s-5 0-5-3q1-4 5-3 2-1 3 3-1 4-3 3m0-50q-2 1-3-3 1-4 3-3s4 0 4 3q-1 4-4 3m9-165s-5 0-5-3q1-4 5-3 2-1 3 3-1 4-5 3m8-41q-1 1-2-4c0-5 3-3 3-3q2-1 3 3-2 4-3 4m6 219q-1 1-3-5c0-5 3-3 3-3q2-1 3 3-1 4-3 3m0 27q-1 1-3-3 1-4 3-4 2-1 3 4c0 5-3 3-3 3m3-10s-4 0-4-2l4-4 3 4q-1 4-3 3m6-807q-1 1-3-3 2-4 3-3 2-1 3 3-2 4-3 3m0 765q-1 1-3-3 2-4 3-3 2-1 3 3 0 4-3 3m6 22s-4 0-4-3q1-4 4-3 3-1 4 3-2 4-5 3m1-536q-2 1-3-4 1-4 3-3s5 0 5 3q-1 5-5 4m4 130s-4 0-4-5c0-4 4-3 4-3q1-1 3 3-1 5-3 5m4 575s-4 0-4-5q1-4 4-3 3-1 3 3-1 5-3 5m5-355q-1 1-3-3 2-4 3-3s4 0 4 3q-1 4-4 3m1 278q-1 1-3-5c0-5 3-3 3-3q2-1 3 3-2 5-3 5m9-281s-4 0-4-3q1-4 4-3 3-1 3 3-1 4-3 3m0-240q-2 1-3-3 1-4 3-3s5 0 5 3q-1 4-5 3m0-293q-2 1-3-4c0-5 3-3 5-3q2-1 3 3-1 4-3 3m6 297q-1 1-3-3 2-4 3-4 2-1 4 4c0 5-3 3-4 3"/><path d="M1030 441q-2 1-3-3 2-4 3-3 1-1 3 3-2 4-3 3m3-279q-2 1-3-3 1-4 3-4s4 0 4 3q-1 4-4 4m4 615q-1 1-3-5c0-5 3-3 3-3s5 0 5 3q-1 4-5 3m8 164q-1 1-3-3 1-5 3-5 3-1 3 5-1 5-3 3m0-161q-1 1-3-3 2-4 3-3 2-1 3 3-1 4-3 3m2-68s-5 0-5-3q1-4 5-3 2-1 3 3-2 4-3 3"/><path d="M1050 943q-2 1-3-4c0-5 3-3 3-3q1-1 3 4c0 5-3 3-3 3m4-10s-4 0-4-3q1-4 4-3 3-1 3 3-1 4-3 3m5-756q-1 1-3-3 2-4 3-3 2-1 3 3-1 4-3 3m0 689q-1 1-3-3 2-5 3-5 2-1 3 5c0 5-3 3-3 3m0-629q-1 1-3-5c0-5 3-3 3-3q2-1 3 3-1 4-3 3m3 511q-1 1-3-3 2-4 3-3 2-1 3 3-1 5-3 5m3 104q-1 1-3-3 2-4 3-3 2-1 3 3-1 5-3 5m3-648q-1 1-3-4c0-5 3-3 3-3q2-1 3 3-1 4-3 4m0 530q-1 1-3-3 2-5 3-4s4 0 4 4q-1 4-4 3m0 85q-1 1-3-5c0-5 3-3 3-3s4 0 4 3q-1 5-4 5"/><path d="M1071 206q-1 1-3-3 0-4 3-3 2-1 3 3-1 4-3 3m0 454q-1 1-3-5 2-5 3-3 2-1 3 3-1 5-3 5m0 693q-1 1-3-3 2-4 3-3s4 0 4 3q-1 4-4 3m3-534s-5 0-5-3q1-4 5-3 2-1 3 3-1 4-3 3m0 68q-1 1-3-3 2-4 3-3 2-1 3 3-1 4-3 3m0-315q-1 1-3-5 2-4 3-3 2-1 3 5-1 5-3 3m1 123s-4 0-4-3q1-4 4-3 3-1 3 3-1 4-4 3m1 9q-1 1-3-3 1-4 3-3 3-1 3 3-1 4-3 3m0-17q-1 1-3-3 1-4 3-3 2-1 3 3-1 4-3 3m2-323q-1 1-3-5 1-4 4-3 3-1 3 3-1 5-3 5m3 525q-1 1-3-3 2-4 3-3s4 0 4 3-4 3-4 3m7 98q-1 1-3-3 2-4 3-4 2-1 3 4c0 5-3 3-3 3m1-98s-4 0-4-3q1-4 4-3 3-1 3 3-2 4-3 3m0-23s-4 0-4-5q1-5 4-3 3-1 3 3-2 5-3 5m6-314s-4 0-4-3q1-4 4-3 3-1 3 3-1 4-3 3m0 49q-2 1-3-3 1-6 3-5s5 0 5 5q-1 4-5 3m2-401q-1 1-3-3 2-4 3-4 2-1 3 3-1 4-3 4m10 633s-4 0-4-3q1-4 4-3 3-1 3 3-1 4-3 3m0-545q-1 1-3-3 2-4 3-3s5 0 5 3q-1 4-5 3m2 554q-1 1-3-3 2-5 3-5 2-1 3 5-1 5-3 3m4-93s-4 0-4-3q1-4 4-3 3-1 3 3-1 4-3 3m2 111s-5 0-5-5q1-4 5-3 2-1 3 3-1 5-5 5m3 17q-1 1-3-5 2-4 3-3 2-1 3 5 0 5-3 3m6-651q-1 1-3-3 2-4 3-3 2-1 3 3-1 4-3 3m0 514q-1 1-3-4c0-5 3-3 3-3s5 0 5 4c0 5-3 3-5 3m0 59-1-3q2-4 3-3 2-1 3 3-1 4-3 3"/><path d="M1124 230q-1 1-3-4c0-5 3-3 3-3s4 0 4 3q-1 4-4 4m6 539q-1 1-3-3 2-5 3-5 2-1 3 5-1 4-3 3m6-422q-1 1-3-3 2-4 3-3 2-1 3 3-1 4-3 3m6 425q-1 1-3-3 2-5 3-5s5 0 5 5q-1 4-5 3m3-326q-1 1-3-3 2-4 3-3s5 0 5 3q-1 4-5 3"/><path d="M1147 447s-5 0-5-3q1-4 5-4 2-1 3 4c0 5-3 3-3 3m3 326q-1 1-3-3 2-4 3-3 2-1 3 3-1 4-3 3m6-588s-5 0-5-3q1-4 5-3 2-1 3 3-1 4-5 3m12 212s-4-1-4-4q1-4 4-3 3-1 3 3-1 4-3 3m19-146q-1 1-3-4c0-5 3-3 3-3s4 0 4 3q-1 4-4 4m1-24q-1 1-3-5 2-5 3-3 2-1 3 3-1 4-3 3m9 386s-4 0-4-3q1-4 4-3 3-1 3 3-1 4-3 3m0-331q-1 1-3-5 2-4 3-3 2-1 3 3-1 5-3 5m2 525s-5 0-5-3q1-5 5-5 2-1 3 5-1 5-5 3m6-118q-1 1-3-4 2-4 3-3s5 0 5 3q-1 5-5 4m3-43s-4 0-4-3q1-4 4-3 3-1 3 3-1 4-3 3m11-329q-1 1-3-3 2-4 3-3 2-1 3 3-1 4-3 3m4-38q-1 1-3-2l3-3q3 0 4 3 0 5-4 3"/><path d="M1221 281q-1 1-3-4 2-4 3-4 2-1 3 4-1 6-3 4m12 320q-1 1-3-5c0-5 3-3 3-3s5 0 5 3q-1 5-5 5m5 223s-5 0-5-3q1-5 5-4 2-1 3 4-1 4-3 3m0-609q-1 1-3-4c0-5 3-3 3-3s4 0 4 3q-1 4-4 4m7 543q-1 1-3-3 2-4 3-3s5 0 5 3q-1 4-5 3m3-35q-1 1-3-3 2-4 3-3s5 0 5 3q-1 4-5 3m3-229q-1 1-3-3 2-4 3-3 2-1 3 3-1 4-3 3m8-257s-5 0-5-4q2-4 3-3 2-1 3 3-1 5-3 4m8-31q-1 1-3-4c0-5 3-3 3-3q2-1 3 3-1 4-3 4m0 134q-1 1-3-3 2-4 3-3s5 0 5 3q-1 4-5 3m3 464q-1 1-3-3 2-4 3-3 2-1 3 3 0 4-3 3m0-73q-1 1-3-5 2-5 3-3 2-1 3 3 0 4-3 3m9-198s-4 0-4-3q1-4 4-3 3-1 3 3-1 4-4 3m3-346q-2 1-3-5 1-4 3-3s4 0 4 3q-1 4-4 3m3 98q-1 1-3-5c0-5 3-3 3-3q2-1 3 3-1 5-3 5m22 127s-4 0-4-3q1-5 4-5 3-1 3 5-1 4-4 3m3 99q-1 1-3-4 2-4 3-3 2-1 3 3-1 5-3 4m1 226s-4 0-4-4q1-4 4-3 4-1 4 3c0 4-4 4-4 4m4-468s-4 0-4-3 4-3 4-3q2-1 3 3-1 4-3 3"/><path d="M1315 261s-4 0-4-5q1-4 4-3 3-1 3 5-1 5-4 3m3 230q-1 1-3-3 2-4 3-3 2-1 3 3-1 4-3 3m3 281q-1 1-3-3 2-5 3-5 2-1 3 5-1 4-3 3m0-105q-1 1-2-3 1-4 3-3 3-1 3 3-1 4-3 3"/><path d="M1324 667s-4 0-4-3q1-4 4-3 3-1 3 3-1 4-4 3m7-376q-1 1-3-4v-2h3l3 2zm2 329s-5 0-5-3q1-4 5-4 2-1 3 4c0 5-3 3-5 3"/><path d="M1335 288q-1 1-3-3 2-4 3-3s4 0 4 3q-1 4-4 3m1 388q-1 1-3-3 2-4 3-3 2-1 3 3 0 4-3 3m5-400q-1 1-3-5 1-5 3-3s4 0 4 3q-1 4-4 3m6 278s-5 0-5-3q1-4 5-3 2-1 3 3-1 4-3 3m3 99q-1 1-3-3 2-4 3-3 2-1 3 3-1 4-3 3m1-443q-1 1-3-5 2-5 3-3 2-1 3 3-1 4-3 3m0 146q-1 1-3-5 2-5 3-3s5 0 5 3q-1 4-5 3"/><path d="M1356 349q-1 1-3-3 2-5 3-5 2-1 3 5-1 4-3 3m0-75q-1 1-3-3 2-4 3-4 2-1 3 4c0 5-3 3-3 3m0 389q-1 1-3-5 2-4 3-3 2-1 3 3-1 5-3 5m0-14q-1 1-3-3 2-4 3-3s5 0 5 3q-1 4-5 3m5-115q-2 1-3-3 1-4 3-3s4 0 4 3q-1 4-4 3m1 67q-1 1-3-5c0-5 3-3 3-3q2-1 3 5-1 4-3 3m3-355q-1 1-3-3 1-4 5-3 2-1 3 3-1 4-3 3m6 197q-1 1-3-3 2-4 3-3 2-1 3 3-1 4-3 4m3 108q-1 1-3-3 2-4 3-3s4 0 4 3q-1 4-4 3m0-240q-1 1-3-3 2-4 3-3s4 0 4 3q-1 4-4 3m3 9q-1 1-3-3 2-4 3-4 2-1 3 4c0 5-3 3-3 3m1 10q-2 1-3-3 1-5 5-4 2-1 3 4-1 4-5 3m5 182q-1 1-3-3 2-4 3-3 2-1 3 3-1 4-3 3m0-72q-1 1-3-3 2-4 3-3 2-1 3 3-1 4-3 3m6-27q-1 1-3-3 2-4 3-3 2-1 3 3-1 4-3 3m1 188s-4 0-4-3q1-4 4-3 3-1 3 3-1 4-3 3m2-97s-5 0-5-3q1-4 5-3 2-1 3 3-2 4-3 3m1-67q-1 1-3-3 2-4 3-3 2-1 3 3-1 4-3 3m2-47q-2 1-3-3 2-4 3-3 1-1 3 3-1 4-3 3m0-60q-2 1-3-3 2-5 3-4s5 0 5 4q-2 4-5 3m3 66q-2 1-3-3 1-4 3-3s5 0 5 3q-1 4-5 3m2 66s-4 0-4-4c0-3 4-4 4-4q2-1 3 4-1 6-3 4m1-143s-5 0-5-5q2-4 5-3 3-1 3 3-1 5-3 5m0 36q-1 1-3-3 1-4 3-3 2-1 3 3-1 4-3 3m0 47q-1 1-3-3 1-4 3-3s5 0 5 3q-1 4-5 3m0 93q-1 1-3-5 1-4 3-3s5 0 5 3q-1 5-5 5m8-141s-5 0-5-3q2-5 3-5s5 0 5 5q-1 5-5 3m2 218s-5 0-5-4c0-5 3-3 5-3q2-1 3 3-1 4-5 4m2-262s-5 0-5-5q1-5 5-3 2-1 3 3-1 5-3 5"/><path d="M1414 359q-1 1-3-4c0-5 3-3 3-3q2-1 3 3-1 4-3 4m3 223q-1 1-3-3 0-4 3-3 2-1 3 3-2 4-3 3m0-207q-1 1-3-5c0-5 3-3 3-3s4 0 4 3q-1 5-4 5m3 271s-5 0-5-3q1-5 5-5 2-1 3 5c0 5-3 3-3 3m0-203q-2 0-3-2l3-3 4 3q0 4-4 3m3-60q-1 1-3-3 1-4 3-3 2-1 3 3-1 4-3 3m1-22s-4 0-4-3q1-4 4-4 3-1 3 4c0 5-3 3-3 3m2 13s-5 0-5-5 3-3 3-3q2-1 3 3 0 5-3 5m2 301q-1 1-3-3 2-4 3-3s4 0 4 3q-1 4-4 3m0-100q-1 1-3-3 2-4 3-3s4 0 4 3q-1 4-4 3m0 73q-1 1-3-3 2-4 3-3s4 0 4 3q-1 4-4 3m1-36q-1 1-3-5 2-4 3-3 2-1 3 3-1 5-3 5m6-87q-1 1-3-4c0-5 3-3 3-3q2-1 3 3-1 4-3 4m2 126q-1 1-3-3 2-4 3-3 2-1 3 3-1 4-3 3m15-203q-1 1-3-5 2-5 3-3 2-1 3 3-1 5-3 5m2-12q-1 1-3-5 2-4 3-3 2-1 3 5-1 5-3 3m4 24s-4 0-4-5q1-4 4-3 3-1 3 3-1 5-4 5m7 18q-2 1-3-3 1-4 3-3 1-1 3 3-1 4-3 3m3 14q-1 1-3-5 1-4 3-3s5 0 5 3q-1 5-5 5m9-20-3-1 3-5 3 5q0 5-3 3m2-63q-1 1-3-3 2-4 3-4 2-1 3 4c0 5-3 3-3 3m12 26q-1 1-3-3 2-4 3-3 2-1 3 3-1 4-3 3"/></g></defs><use mask="url(#d)" href="#c"/></svg>