<svg width="70" height="70" viewBox="0 0 70 70" fill="none" xmlns="http://www.w3.org/2000/svg">
<path fill-rule="evenodd" clip-rule="evenodd" d="M15.1605 9.62492C16.9164 5.83325 22.9451 5.83325 34.9997 5.83325C47.0543 5.83325 53.083 5.83325 54.8389 9.62492C54.9905 9.9477 55.1169 10.2841 55.218 10.6341C56.4138 14.6795 52.1497 19.3695 43.6272 28.7466L37.9164 34.9999L43.6272 41.2503C52.1497 50.6303 56.4109 55.3203 55.218 59.3628C55.117 59.7101 54.9902 60.0494 54.8389 60.3778C53.083 64.1666 47.0543 64.1666 34.9997 64.1666C22.9451 64.1666 16.9164 64.1666 15.1605 60.3749C15.0094 60.0483 14.8827 59.711 14.7814 59.3657C13.5855 55.3203 17.8497 50.6303 26.3722 41.2533L32.083 34.9999L26.3722 28.7495C17.8497 19.3666 13.5914 14.6795 14.7814 10.637C14.8825 10.287 15.0089 9.95158 15.1605 9.62492ZM29.1664 51.7707C28.5862 51.7707 28.0298 52.0012 27.6196 52.4115C27.2093 52.8217 26.9789 53.3781 26.9789 53.9582C26.9789 54.5384 27.2093 55.0948 27.6196 55.505C28.0298 55.9153 28.5862 56.1457 29.1664 56.1457H40.833C41.4132 56.1457 41.9696 55.9153 42.3798 55.505C42.7901 55.0948 43.0205 54.5384 43.0205 53.9582C43.0205 53.3781 42.7901 52.8217 42.3798 52.4115C41.9696 52.0012 41.4132 51.7707 40.833 51.7707H29.1664ZM26.9789 16.0416C26.9789 15.4614 27.2093 14.905 27.6196 14.4948C28.0298 14.0846 28.5862 13.8541 29.1664 13.8541H40.833C41.4132 13.8541 41.9696 14.0846 42.3798 14.4948C42.7901 14.905 43.0205 15.4614 43.0205 16.0416C43.0205 16.6217 42.7901 17.1781 42.3798 17.5884C41.9696 17.9986 41.4132 18.2291 40.833 18.2291H29.1664C28.5862 18.2291 28.0298 17.9986 27.6196 17.5884C27.2093 17.1781 26.9789 16.6217 26.9789 16.0416Z" fill="#D8D8D8"/>
</svg>
